<mxfile host="app.diagrams.net" modified="2024-05-29T00:38:11.973Z" agent="Mozilla/5.0 (Macintosh; Intel Mac OS X 10_15_7) AppleWebKit/537.36 (KHTML, like Gecko) Chrome/125.0.0.0 Safari/537.36" etag="xR4xfZ8b3Mo0beEd0QhZ" version="24.4.9" type="device">
  <diagram name="Page-1" id="2cc2dc42-3aac-f2a9-1cec-7a8b7cbee084">
    <mxGraphModel dx="1456" dy="683" grid="1" gridSize="10" guides="1" tooltips="1" connect="1" arrows="1" fold="1" page="1" pageScale="1" pageWidth="1100" pageHeight="850" background="none" math="0" shadow="0">
      <root>
        <mxCell id="0" />
        <mxCell id="1" parent="0" />
        <mxCell id="7026571954dc6520-1" value="" style="strokeWidth=1;shadow=0;dashed=0;align=center;html=1;shape=mxgraph.mockup.containers.browserWindow;rSize=0;strokeColor=#666666;mainText=,;recursiveResize=0;rounded=0;labelBackgroundColor=none;fontFamily=Verdana;fontSize=12" parent="1" vertex="1">
          <mxGeometry x="25" y="30" width="1050" height="780" as="geometry" />
        </mxCell>
        <mxCell id="7026571954dc6520-2" value="Home" style="strokeWidth=1;shadow=0;dashed=0;align=center;html=1;shape=mxgraph.mockup.containers.anchor;fontSize=17;fontColor=#666666;align=left;" parent="7026571954dc6520-1" vertex="1">
          <mxGeometry x="60" y="12" width="110" height="26" as="geometry" />
        </mxCell>
        <mxCell id="7026571954dc6520-3" value="https://localhost:3001/home" style="strokeWidth=1;shadow=0;dashed=0;align=center;html=1;shape=mxgraph.mockup.containers.anchor;rSize=0;fontSize=17;fontColor=#666666;align=left;" parent="7026571954dc6520-1" vertex="1">
          <mxGeometry x="130" y="60" width="250" height="26" as="geometry" />
        </mxCell>
        <mxCell id="7026571954dc6520-14" value="Search" style="strokeWidth=1;shadow=0;dashed=0;align=center;html=1;shape=mxgraph.mockup.forms.searchBox;strokeColor=#999999;mainText=;strokeColor2=#008cff;fontColor=#666666;fontSize=17;align=left;spacingLeft=3;rounded=0;labelBackgroundColor=none;" parent="7026571954dc6520-1" vertex="1">
          <mxGeometry x="289" y="420" width="473" height="30" as="geometry" />
        </mxCell>
        <mxCell id="-O_35CLQnwZobcBv6rru-1" value="&lt;h1&gt;&lt;font style=&quot;font-size: 48px;&quot;&gt;ELECTRONICS&lt;/font&gt;&lt;/h1&gt;" style="text;html=1;align=center;verticalAlign=middle;whiteSpace=wrap;rounded=0;" vertex="1" parent="7026571954dc6520-1">
          <mxGeometry x="348" y="310" width="355" height="70" as="geometry" />
        </mxCell>
        <mxCell id="-O_35CLQnwZobcBv6rru-2" value="" style="strokeWidth=1;shadow=0;dashed=0;align=center;html=1;shape=mxgraph.mockup.containers.browserWindow;rSize=0;strokeColor=#666666;mainText=,;recursiveResize=0;rounded=0;labelBackgroundColor=none;fontFamily=Verdana;fontSize=12" vertex="1" parent="1">
          <mxGeometry x="25" y="870" width="1055" height="790" as="geometry" />
        </mxCell>
        <mxCell id="-O_35CLQnwZobcBv6rru-3" value="Product List" style="strokeWidth=1;shadow=0;dashed=0;align=center;html=1;shape=mxgraph.mockup.containers.anchor;fontSize=17;fontColor=#666666;align=left;" vertex="1" parent="-O_35CLQnwZobcBv6rru-2">
          <mxGeometry x="60" y="12" width="110" height="26" as="geometry" />
        </mxCell>
        <mxCell id="-O_35CLQnwZobcBv6rru-4" value="https://localhost:home/products" style="strokeWidth=1;shadow=0;dashed=0;align=center;html=1;shape=mxgraph.mockup.containers.anchor;rSize=0;fontSize=17;fontColor=#666666;align=left;" vertex="1" parent="-O_35CLQnwZobcBv6rru-2">
          <mxGeometry x="130" y="60" width="250" height="26" as="geometry" />
        </mxCell>
        <mxCell id="-O_35CLQnwZobcBv6rru-5" value="Search" style="strokeWidth=1;shadow=0;dashed=0;align=center;html=1;shape=mxgraph.mockup.forms.searchBox;strokeColor=#999999;mainText=;strokeColor2=#008cff;fontColor=#666666;fontSize=17;align=left;spacingLeft=3;rounded=0;labelBackgroundColor=none;" vertex="1" parent="-O_35CLQnwZobcBv6rru-2">
          <mxGeometry x="288.25" y="220" width="473" height="30" as="geometry" />
        </mxCell>
        <mxCell id="-O_35CLQnwZobcBv6rru-6" value="&lt;h1&gt;&lt;font style=&quot;font-size: 48px;&quot;&gt;ELECTRONICS&lt;/font&gt;&lt;/h1&gt;" style="text;html=1;align=center;verticalAlign=middle;whiteSpace=wrap;rounded=0;" vertex="1" parent="-O_35CLQnwZobcBv6rru-2">
          <mxGeometry x="347.25" y="130" width="355" height="70" as="geometry" />
        </mxCell>
        <mxCell id="-O_35CLQnwZobcBv6rru-8" value="" style="verticalLabelPosition=bottom;shadow=0;dashed=0;align=center;html=1;verticalAlign=top;strokeWidth=1;shape=mxgraph.mockup.navigation.scrollBar;strokeColor=#999999;barPos=87.604;fillColor2=#99ddff;strokeColor2=none;direction=north;" vertex="1" parent="-O_35CLQnwZobcBv6rru-2">
          <mxGeometry x="1005" y="350" width="20" height="410" as="geometry" />
        </mxCell>
        <mxCell id="-O_35CLQnwZobcBv6rru-28" value="" style="strokeWidth=1;shadow=0;dashed=0;align=center;html=1;shape=mxgraph.mockup.forms.rrect;rSize=0;strokeColor=#999999;fillColor=#ffffff;recursiveResize=0;" vertex="1" parent="-O_35CLQnwZobcBv6rru-2">
          <mxGeometry x="395" y="270" width="259.5" height="60" as="geometry" />
        </mxCell>
        <mxCell id="-O_35CLQnwZobcBv6rru-29" value="Brands" style="strokeWidth=1;shadow=0;dashed=0;align=center;html=1;shape=mxgraph.mockup.forms.rrect;rSize=0;fillColor=#eeeeee;strokeColor=#999999;gradientColor=#cccccc;align=left;spacingLeft=4;fontSize=17;fontColor=#666666;labelPosition=right;" vertex="1" parent="-O_35CLQnwZobcBv6rru-28">
          <mxGeometry x="8" y="7.5" width="15" height="15" as="geometry" />
        </mxCell>
        <mxCell id="-O_35CLQnwZobcBv6rru-30" value="Product" style="strokeWidth=1;shadow=0;dashed=0;align=center;html=1;shape=mxgraph.mockup.forms.rrect;rSize=0;fillColor=#eeeeee;strokeColor=#999999;gradientColor=#cccccc;align=left;spacingLeft=4;fontSize=17;fontColor=#666666;labelPosition=right;" vertex="1" parent="-O_35CLQnwZobcBv6rru-28">
          <mxGeometry x="8" y="37.5" width="15" height="15" as="geometry" />
        </mxCell>
        <mxCell id="-O_35CLQnwZobcBv6rru-32" value="Color" style="strokeWidth=1;shadow=0;dashed=0;align=center;html=1;shape=mxgraph.mockup.forms.rrect;rSize=0;fillColor=#eeeeee;strokeColor=#999999;gradientColor=#cccccc;align=left;spacingLeft=4;fontSize=17;fontColor=#666666;labelPosition=right;" vertex="1" parent="-O_35CLQnwZobcBv6rru-28">
          <mxGeometry x="169.5" y="7.5" width="15" height="15" as="geometry" />
        </mxCell>
        <mxCell id="-O_35CLQnwZobcBv6rru-33" value="Price" style="strokeWidth=1;shadow=0;dashed=0;align=center;html=1;shape=mxgraph.mockup.forms.rrect;rSize=0;fillColor=#eeeeee;strokeColor=#999999;gradientColor=#cccccc;align=left;spacingLeft=4;fontSize=17;fontColor=#666666;labelPosition=right;" vertex="1" parent="-O_35CLQnwZobcBv6rru-28">
          <mxGeometry x="169.5" y="37.5" width="15" height="15" as="geometry" />
        </mxCell>
        <mxCell id="-O_35CLQnwZobcBv6rru-182" value="" style="group" vertex="1" connectable="0" parent="-O_35CLQnwZobcBv6rru-2">
          <mxGeometry x="180" y="580" width="685" height="180" as="geometry" />
        </mxCell>
        <mxCell id="-O_35CLQnwZobcBv6rru-183" value="" style="verticalLabelPosition=bottom;shadow=0;dashed=0;align=center;html=1;verticalAlign=top;strokeWidth=1;shape=mxgraph.mockup.graphics.simpleIcon;strokeColor=#999999;" vertex="1" parent="-O_35CLQnwZobcBv6rru-182">
          <mxGeometry width="170" height="180" as="geometry" />
        </mxCell>
        <mxCell id="-O_35CLQnwZobcBv6rru-185" value="Brand: Samsung" style="text;html=1;align=center;verticalAlign=middle;whiteSpace=wrap;rounded=0;" vertex="1" parent="-O_35CLQnwZobcBv6rru-182">
          <mxGeometry x="185" y="35" width="95" height="20" as="geometry" />
        </mxCell>
        <mxCell id="-O_35CLQnwZobcBv6rru-186" value="&lt;h6&gt;Price:&amp;nbsp; $ 189&lt;/h6&gt;" style="text;strokeColor=none;fillColor=none;html=1;fontSize=24;fontStyle=1;verticalAlign=middle;align=left;" vertex="1" parent="-O_35CLQnwZobcBv6rru-182">
          <mxGeometry x="185" y="160" width="100" height="20" as="geometry" />
        </mxCell>
        <mxCell id="-O_35CLQnwZobcBv6rru-187" value="&lt;h6&gt;&lt;font style=&quot;font-size: 12px;&quot;&gt;Product Discription:&lt;/font&gt;&lt;/h6&gt;" style="text;strokeColor=none;fillColor=none;html=1;fontSize=24;fontStyle=1;verticalAlign=middle;align=left;" vertex="1" parent="-O_35CLQnwZobcBv6rru-182">
          <mxGeometry x="185" y="60" width="125" height="20" as="geometry" />
        </mxCell>
        <mxCell id="-O_35CLQnwZobcBv6rru-188" value="Lorem ipsum dolor sit amet, consectetur adipisicing elit, sed do eiusmod tempor incididunt ut labore et dolore magna aliqua. Ut enim ad minim veniam, quis nostrud exercitation ullamco laboris nisi ut aliquip ex ea commodo consequat. Duis aute irure dolor in reprehenderit in voluptate velit esse cillum dolore eu fugiat nulla pariatur.&amp;nbsp;&lt;div&gt;&lt;br&gt;&lt;/div&gt;" style="text;spacingTop=-5;whiteSpace=wrap;html=1;align=left;fontSize=12;fontFamily=Helvetica;fillColor=none;strokeColor=none;" vertex="1" parent="-O_35CLQnwZobcBv6rru-182">
          <mxGeometry x="185" y="80" width="500" height="60" as="geometry" />
        </mxCell>
        <mxCell id="-O_35CLQnwZobcBv6rru-212" value="DELETE" style="html=1;shadow=0;dashed=0;shape=mxgraph.bootstrap.rrect;rSize=5;strokeColor=none;strokeWidth=1;fillColor=#DB2843;fontColor=#FFFFFF;whiteSpace=wrap;align=center;verticalAlign=middle;spacingLeft=0;fontStyle=0;fontSize=16;spacing=5;" vertex="1" parent="-O_35CLQnwZobcBv6rru-182">
          <mxGeometry x="612.5" y="150" width="65" height="30" as="geometry" />
        </mxCell>
        <mxCell id="-O_35CLQnwZobcBv6rru-184" value="&lt;h1&gt;Samsung 27&#39;&#39; Monitor&lt;/h1&gt;" style="text;html=1;align=center;verticalAlign=middle;whiteSpace=wrap;rounded=0;" vertex="1" parent="-O_35CLQnwZobcBv6rru-2">
          <mxGeometry x="365" y="580" width="255" height="30" as="geometry" />
        </mxCell>
        <mxCell id="-O_35CLQnwZobcBv6rru-191" value="" style="group" vertex="1" connectable="0" parent="-O_35CLQnwZobcBv6rru-2">
          <mxGeometry x="185" y="370" width="685" height="180" as="geometry" />
        </mxCell>
        <mxCell id="-O_35CLQnwZobcBv6rru-181" value="" style="group" vertex="1" connectable="0" parent="-O_35CLQnwZobcBv6rru-191">
          <mxGeometry width="685" height="180" as="geometry" />
        </mxCell>
        <mxCell id="-O_35CLQnwZobcBv6rru-165" value="" style="verticalLabelPosition=bottom;shadow=0;dashed=0;align=center;html=1;verticalAlign=top;strokeWidth=1;shape=mxgraph.mockup.graphics.simpleIcon;strokeColor=#999999;" vertex="1" parent="-O_35CLQnwZobcBv6rru-181">
          <mxGeometry width="170" height="180" as="geometry" />
        </mxCell>
        <mxCell id="-O_35CLQnwZobcBv6rru-167" value="Brand: Apple" style="text;html=1;align=center;verticalAlign=middle;whiteSpace=wrap;rounded=0;" vertex="1" parent="-O_35CLQnwZobcBv6rru-181">
          <mxGeometry x="185" y="35" width="75" height="20" as="geometry" />
        </mxCell>
        <mxCell id="-O_35CLQnwZobcBv6rru-178" value="&lt;h6&gt;Price:&amp;nbsp; $ 540&lt;/h6&gt;" style="text;strokeColor=none;fillColor=none;html=1;fontSize=24;fontStyle=1;verticalAlign=middle;align=left;" vertex="1" parent="-O_35CLQnwZobcBv6rru-181">
          <mxGeometry x="185" y="160" width="100" height="20" as="geometry" />
        </mxCell>
        <mxCell id="-O_35CLQnwZobcBv6rru-179" value="&lt;h6&gt;&lt;font style=&quot;font-size: 12px;&quot;&gt;Product Discription:&lt;/font&gt;&lt;/h6&gt;" style="text;strokeColor=none;fillColor=none;html=1;fontSize=24;fontStyle=1;verticalAlign=middle;align=left;" vertex="1" parent="-O_35CLQnwZobcBv6rru-181">
          <mxGeometry x="185" y="60" width="125" height="20" as="geometry" />
        </mxCell>
        <mxCell id="-O_35CLQnwZobcBv6rru-180" value="Lorem ipsum dolor sit amet, consectetur adipisicing elit, sed do eiusmod tempor incididunt ut labore et dolore magna aliqua. Ut enim ad minim veniam, quis nostrud exercitation ullamco laboris nisi ut aliquip ex ea commodo consequat. Duis aute irure dolor in reprehenderit in voluptate velit esse cillum dolore eu fugiat nulla pariatur.&amp;nbsp;&lt;div&gt;&lt;br&gt;&lt;/div&gt;" style="text;spacingTop=-5;whiteSpace=wrap;html=1;align=left;fontSize=12;fontFamily=Helvetica;fillColor=none;strokeColor=none;" vertex="1" parent="-O_35CLQnwZobcBv6rru-181">
          <mxGeometry x="185" y="80" width="500" height="60" as="geometry" />
        </mxCell>
        <mxCell id="-O_35CLQnwZobcBv6rru-166" value="&lt;h1&gt;IPhone&lt;/h1&gt;" style="text;html=1;align=center;verticalAlign=middle;whiteSpace=wrap;rounded=0;" vertex="1" parent="-O_35CLQnwZobcBv6rru-191">
          <mxGeometry x="200" width="60" height="30" as="geometry" />
        </mxCell>
        <mxCell id="-O_35CLQnwZobcBv6rru-210" value="DELETE" style="html=1;shadow=0;dashed=0;shape=mxgraph.bootstrap.rrect;rSize=5;strokeColor=none;strokeWidth=1;fillColor=#DB2843;fontColor=#FFFFFF;whiteSpace=wrap;align=center;verticalAlign=middle;spacingLeft=0;fontStyle=0;fontSize=16;spacing=5;" vertex="1" parent="-O_35CLQnwZobcBv6rru-2">
          <mxGeometry x="792.5" y="520" width="65" height="30" as="geometry" />
        </mxCell>
        <mxCell id="-O_35CLQnwZobcBv6rru-75" value="" style="strokeWidth=1;shadow=0;dashed=0;align=center;html=1;shape=mxgraph.mockup.containers.browserWindow;rSize=0;strokeColor=#666666;mainText=,;recursiveResize=0;rounded=0;labelBackgroundColor=none;fontFamily=Verdana;fontSize=12" vertex="1" parent="1">
          <mxGeometry x="1125" y="40" width="1050" height="780" as="geometry" />
        </mxCell>
        <mxCell id="-O_35CLQnwZobcBv6rru-76" value="Add" style="strokeWidth=1;shadow=0;dashed=0;align=center;html=1;shape=mxgraph.mockup.containers.anchor;fontSize=17;fontColor=#666666;align=left;" vertex="1" parent="-O_35CLQnwZobcBv6rru-75">
          <mxGeometry x="60" y="12" width="110" height="26" as="geometry" />
        </mxCell>
        <mxCell id="-O_35CLQnwZobcBv6rru-77" value="https://localhost:3001/add-product" style="strokeWidth=1;shadow=0;dashed=0;align=center;html=1;shape=mxgraph.mockup.containers.anchor;rSize=0;fontSize=17;fontColor=#666666;align=left;" vertex="1" parent="-O_35CLQnwZobcBv6rru-75">
          <mxGeometry x="130" y="60" width="250" height="26" as="geometry" />
        </mxCell>
        <mxCell id="-O_35CLQnwZobcBv6rru-79" value="&lt;h1&gt;&lt;font style=&quot;font-size: 48px;&quot;&gt;ELECTRONICS&lt;/font&gt;&lt;/h1&gt;" style="text;html=1;align=center;verticalAlign=middle;whiteSpace=wrap;rounded=0;" vertex="1" parent="-O_35CLQnwZobcBv6rru-75">
          <mxGeometry x="348" y="130" width="355" height="70" as="geometry" />
        </mxCell>
        <mxCell id="-O_35CLQnwZobcBv6rru-123" value="New Product" style="html=1;shadow=0;dashed=0;shape=mxgraph.bootstrap.rrect;rSize=5;html=1;strokeColor=#C8C8C8;fillColor=#ffffff;whiteSpace=wrap;verticalAlign=top;align=left;fontSize=18;spacing=15;spacingTop=-5;" vertex="1" parent="-O_35CLQnwZobcBv6rru-75">
          <mxGeometry x="378" y="220" width="325" height="540" as="geometry" />
        </mxCell>
        <mxCell id="-O_35CLQnwZobcBv6rru-124" value="" style="shape=line;strokeColor=#dddddd;resizeWidth=1;" vertex="1" parent="-O_35CLQnwZobcBv6rru-123">
          <mxGeometry width="325" height="10" relative="1" as="geometry">
            <mxPoint y="50" as="offset" />
          </mxGeometry>
        </mxCell>
        <mxCell id="-O_35CLQnwZobcBv6rru-125" value="" style="html=1;shadow=0;dashed=0;shape=mxgraph.bootstrap.x;strokeColor=#868686;strokeWidth=2;" vertex="1" parent="-O_35CLQnwZobcBv6rru-123">
          <mxGeometry x="1" width="8" height="8" relative="1" as="geometry">
            <mxPoint x="-24" y="20" as="offset" />
          </mxGeometry>
        </mxCell>
        <mxCell id="-O_35CLQnwZobcBv6rru-126" value="Product Infomation:" style="strokeColor=none;fillColor=none;resizeWidth=1;align=left;verticalAlign=top;spacing=10;fontSize=14;whiteSpace=wrap;html=1;" vertex="1" parent="-O_35CLQnwZobcBv6rru-123">
          <mxGeometry width="325" height="40" relative="1" as="geometry">
            <mxPoint y="70" as="offset" />
          </mxGeometry>
        </mxCell>
        <mxCell id="-O_35CLQnwZobcBv6rru-127" value="Name" style="html=1;shadow=0;dashed=0;shape=mxgraph.bootstrap.rrect;rSize=5;strokeColor=#CED4DA;fillColor=none;align=left;verticalAlign=middle;spacing=10;fontSize=14;whiteSpace=wrap;html=1;" vertex="1" parent="-O_35CLQnwZobcBv6rru-123">
          <mxGeometry width="310" height="40" relative="1" as="geometry">
            <mxPoint x="8" y="110" as="offset" />
          </mxGeometry>
        </mxCell>
        <mxCell id="-O_35CLQnwZobcBv6rru-128" value="Description:" style="strokeColor=none;fillColor=none;resizeWidth=1;align=left;verticalAlign=top;spacing=10;fontSize=14;whiteSpace=wrap;html=1;" vertex="1" parent="-O_35CLQnwZobcBv6rru-123">
          <mxGeometry width="325" height="30" relative="1" as="geometry">
            <mxPoint y="300" as="offset" />
          </mxGeometry>
        </mxCell>
        <mxCell id="-O_35CLQnwZobcBv6rru-129" value="" style="html=1;shadow=0;dashed=0;shape=mxgraph.bootstrap.rrect;rSize=5;strokeColor=#CED4DA;fillColor=none;align=left;verticalAlign=middle;spacing=10;fontSize=14;whiteSpace=wrap;html=1;" vertex="1" parent="-O_35CLQnwZobcBv6rru-123">
          <mxGeometry width="300" height="100" relative="1" as="geometry">
            <mxPoint x="10" y="340" as="offset" />
          </mxGeometry>
        </mxCell>
        <mxCell id="-O_35CLQnwZobcBv6rru-130" value="" style="shape=line;strokeColor=#dddddd;resizeWidth=1;" vertex="1" parent="-O_35CLQnwZobcBv6rru-123">
          <mxGeometry width="325" height="10" relative="1" as="geometry">
            <mxPoint y="450" as="offset" />
          </mxGeometry>
        </mxCell>
        <mxCell id="-O_35CLQnwZobcBv6rru-131" value="Add" style="html=1;shadow=0;dashed=0;shape=mxgraph.bootstrap.rrect;rSize=5;fillColor=#0085FC;strokeColor=none;fontColor=#FFFFFF;fontSize=14;" vertex="1" parent="-O_35CLQnwZobcBv6rru-123">
          <mxGeometry x="1" y="1" width="110" height="40" relative="1" as="geometry">
            <mxPoint x="-217" y="-60" as="offset" />
          </mxGeometry>
        </mxCell>
        <mxCell id="-O_35CLQnwZobcBv6rru-133" value="Image" style="html=1;shadow=0;dashed=0;shape=mxgraph.bootstrap.rrect;rSize=5;strokeColor=#CED4DA;fillColor=none;align=left;verticalAlign=middle;spacing=10;fontSize=14;whiteSpace=wrap;html=1;" vertex="1" parent="-O_35CLQnwZobcBv6rru-123">
          <mxGeometry width="310" height="40" relative="1" as="geometry">
            <mxPoint x="8" y="210" as="offset" />
          </mxGeometry>
        </mxCell>
        <mxCell id="-O_35CLQnwZobcBv6rru-134" value="Price $" style="html=1;shadow=0;dashed=0;shape=mxgraph.bootstrap.rrect;rSize=5;strokeColor=#CED4DA;fillColor=none;align=left;verticalAlign=middle;spacing=10;fontSize=14;whiteSpace=wrap;html=1;" vertex="1" parent="-O_35CLQnwZobcBv6rru-123">
          <mxGeometry width="310" height="40" relative="1" as="geometry">
            <mxPoint x="8" y="260" as="offset" />
          </mxGeometry>
        </mxCell>
        <mxCell id="-O_35CLQnwZobcBv6rru-163" value="Brand" style="html=1;shadow=0;dashed=0;shape=mxgraph.bootstrap.rrect;rSize=5;strokeColor=#CED4DA;fillColor=none;align=left;verticalAlign=middle;spacing=10;fontSize=14;whiteSpace=wrap;html=1;" vertex="1" parent="-O_35CLQnwZobcBv6rru-123">
          <mxGeometry width="310" height="40" relative="1" as="geometry">
            <mxPoint x="8" y="160" as="offset" />
          </mxGeometry>
        </mxCell>
        <mxCell id="-O_35CLQnwZobcBv6rru-139" value="" style="strokeWidth=1;shadow=0;dashed=0;align=center;html=1;shape=mxgraph.mockup.containers.browserWindow;rSize=0;strokeColor=#666666;mainText=,;recursiveResize=0;rounded=0;labelBackgroundColor=none;fontFamily=Verdana;fontSize=12" vertex="1" parent="1">
          <mxGeometry x="1125" y="870" width="1050" height="780" as="geometry" />
        </mxCell>
        <mxCell id="-O_35CLQnwZobcBv6rru-140" value="Product Details" style="strokeWidth=1;shadow=0;dashed=0;align=center;html=1;shape=mxgraph.mockup.containers.anchor;fontSize=17;fontColor=#666666;align=left;" vertex="1" parent="-O_35CLQnwZobcBv6rru-139">
          <mxGeometry x="60" y="12" width="110" height="26" as="geometry" />
        </mxCell>
        <mxCell id="-O_35CLQnwZobcBv6rru-141" value="https://localhost:3001/product-info" style="strokeWidth=1;shadow=0;dashed=0;align=center;html=1;shape=mxgraph.mockup.containers.anchor;rSize=0;fontSize=17;fontColor=#666666;align=left;" vertex="1" parent="-O_35CLQnwZobcBv6rru-139">
          <mxGeometry x="130" y="60" width="250" height="26" as="geometry" />
        </mxCell>
        <mxCell id="-O_35CLQnwZobcBv6rru-142" value="&lt;h1&gt;&lt;font style=&quot;font-size: 48px;&quot;&gt;ELECTRONICS&lt;/font&gt;&lt;/h1&gt;" style="text;html=1;align=center;verticalAlign=middle;whiteSpace=wrap;rounded=0;" vertex="1" parent="-O_35CLQnwZobcBv6rru-139">
          <mxGeometry x="348" y="180" width="355" height="70" as="geometry" />
        </mxCell>
        <mxCell id="-O_35CLQnwZobcBv6rru-157" value="" style="verticalLabelPosition=bottom;shadow=0;dashed=0;align=center;html=1;verticalAlign=top;strokeWidth=1;shape=mxgraph.mockup.graphics.simpleIcon;strokeColor=#999999;" vertex="1" parent="-O_35CLQnwZobcBv6rru-139">
          <mxGeometry x="150" y="360" width="230" height="250" as="geometry" />
        </mxCell>
        <mxCell id="-O_35CLQnwZobcBv6rru-159" value="&lt;h1&gt;IPhone&lt;/h1&gt;" style="text;strokeColor=none;fillColor=none;html=1;fontSize=24;fontStyle=1;verticalAlign=middle;align=left;" vertex="1" parent="-O_35CLQnwZobcBv6rru-139">
          <mxGeometry x="420" y="360" width="100" height="40" as="geometry" />
        </mxCell>
        <mxCell id="-O_35CLQnwZobcBv6rru-160" value="&lt;h6&gt;Product Discription:&lt;/h6&gt;" style="text;strokeColor=none;fillColor=none;html=1;fontSize=24;fontStyle=1;verticalAlign=middle;align=left;" vertex="1" parent="-O_35CLQnwZobcBv6rru-139">
          <mxGeometry x="420" y="450" width="100" height="40" as="geometry" />
        </mxCell>
        <mxCell id="-O_35CLQnwZobcBv6rru-161" value="&lt;h6&gt;Price:&amp;nbsp; $ 540&lt;/h6&gt;" style="text;strokeColor=none;fillColor=none;html=1;fontSize=24;fontStyle=1;verticalAlign=middle;align=left;" vertex="1" parent="-O_35CLQnwZobcBv6rru-139">
          <mxGeometry x="420" y="570" width="100" height="40" as="geometry" />
        </mxCell>
        <mxCell id="-O_35CLQnwZobcBv6rru-162" value="Lorem ipsum dolor sit amet, consectetur adipisicing elit, sed do eiusmod tempor incididunt ut labore et dolore magna aliqua. Ut enim ad minim veniam, quis nostrud exercitation ullamco laboris nisi ut aliquip ex ea commodo consequat. Duis aute irure dolor in reprehenderit in voluptate velit esse cillum dolore eu fugiat nulla pariatur. Excepteur sint occaecat cupidatat non proident, sunt in culpa qui officia deserunt mollit anim id est laborum.&lt;div&gt;&lt;br/&gt;&lt;/div&gt;" style="text;spacingTop=-5;whiteSpace=wrap;html=1;align=left;fontSize=12;fontFamily=Helvetica;fillColor=none;strokeColor=none;" vertex="1" parent="-O_35CLQnwZobcBv6rru-139">
          <mxGeometry x="420" y="480" width="500" height="80" as="geometry" />
        </mxCell>
        <mxCell id="-O_35CLQnwZobcBv6rru-164" value="&lt;h6&gt;&lt;i&gt;Brand:&amp;nbsp; Apple&lt;/i&gt;&lt;/h6&gt;" style="text;strokeColor=none;fillColor=none;html=1;fontSize=24;fontStyle=1;verticalAlign=middle;align=left;" vertex="1" parent="-O_35CLQnwZobcBv6rru-139">
          <mxGeometry x="420" y="400" width="100" height="40" as="geometry" />
        </mxCell>
        <mxCell id="-O_35CLQnwZobcBv6rru-193" value="PRODUCT" style="shape=table;startSize=30;container=1;collapsible=1;childLayout=tableLayout;fixedRows=1;rowLines=0;fontStyle=1;align=center;resizeLast=1;html=1;" vertex="1" parent="1">
          <mxGeometry x="130" y="1770" width="250" height="150" as="geometry" />
        </mxCell>
        <mxCell id="-O_35CLQnwZobcBv6rru-194" value="" style="shape=tableRow;horizontal=0;startSize=0;swimlaneHead=0;swimlaneBody=0;fillColor=none;collapsible=0;dropTarget=0;points=[[0,0.5],[1,0.5]];portConstraint=eastwest;top=0;left=0;right=0;bottom=1;" vertex="1" parent="-O_35CLQnwZobcBv6rru-193">
          <mxGeometry y="30" width="250" height="30" as="geometry" />
        </mxCell>
        <mxCell id="-O_35CLQnwZobcBv6rru-195" value="PK" style="shape=partialRectangle;connectable=0;fillColor=none;top=0;left=0;bottom=0;right=0;fontStyle=1;overflow=hidden;whiteSpace=wrap;html=1;" vertex="1" parent="-O_35CLQnwZobcBv6rru-194">
          <mxGeometry width="30" height="30" as="geometry">
            <mxRectangle width="30" height="30" as="alternateBounds" />
          </mxGeometry>
        </mxCell>
        <mxCell id="-O_35CLQnwZobcBv6rru-196" value="product_id" style="shape=partialRectangle;connectable=0;fillColor=none;top=0;left=0;bottom=0;right=0;align=left;spacingLeft=6;fontStyle=5;overflow=hidden;whiteSpace=wrap;html=1;" vertex="1" parent="-O_35CLQnwZobcBv6rru-194">
          <mxGeometry x="30" width="220" height="30" as="geometry">
            <mxRectangle width="220" height="30" as="alternateBounds" />
          </mxGeometry>
        </mxCell>
        <mxCell id="-O_35CLQnwZobcBv6rru-197" value="" style="shape=tableRow;horizontal=0;startSize=0;swimlaneHead=0;swimlaneBody=0;fillColor=none;collapsible=0;dropTarget=0;points=[[0,0.5],[1,0.5]];portConstraint=eastwest;top=0;left=0;right=0;bottom=0;" vertex="1" parent="-O_35CLQnwZobcBv6rru-193">
          <mxGeometry y="60" width="250" height="30" as="geometry" />
        </mxCell>
        <mxCell id="-O_35CLQnwZobcBv6rru-198" value="" style="shape=partialRectangle;connectable=0;fillColor=none;top=0;left=0;bottom=0;right=0;editable=1;overflow=hidden;whiteSpace=wrap;html=1;" vertex="1" parent="-O_35CLQnwZobcBv6rru-197">
          <mxGeometry width="30" height="30" as="geometry">
            <mxRectangle width="30" height="30" as="alternateBounds" />
          </mxGeometry>
        </mxCell>
        <mxCell id="-O_35CLQnwZobcBv6rru-199" value="name: String" style="shape=partialRectangle;connectable=0;fillColor=none;top=0;left=0;bottom=0;right=0;align=left;spacingLeft=6;overflow=hidden;whiteSpace=wrap;html=1;" vertex="1" parent="-O_35CLQnwZobcBv6rru-197">
          <mxGeometry x="30" width="220" height="30" as="geometry">
            <mxRectangle width="220" height="30" as="alternateBounds" />
          </mxGeometry>
        </mxCell>
        <mxCell id="-O_35CLQnwZobcBv6rru-200" value="" style="shape=tableRow;horizontal=0;startSize=0;swimlaneHead=0;swimlaneBody=0;fillColor=none;collapsible=0;dropTarget=0;points=[[0,0.5],[1,0.5]];portConstraint=eastwest;top=0;left=0;right=0;bottom=0;" vertex="1" parent="-O_35CLQnwZobcBv6rru-193">
          <mxGeometry y="90" width="250" height="30" as="geometry" />
        </mxCell>
        <mxCell id="-O_35CLQnwZobcBv6rru-201" value="" style="shape=partialRectangle;connectable=0;fillColor=none;top=0;left=0;bottom=0;right=0;editable=1;overflow=hidden;whiteSpace=wrap;html=1;" vertex="1" parent="-O_35CLQnwZobcBv6rru-200">
          <mxGeometry width="30" height="30" as="geometry">
            <mxRectangle width="30" height="30" as="alternateBounds" />
          </mxGeometry>
        </mxCell>
        <mxCell id="-O_35CLQnwZobcBv6rru-202" value="URL: String" style="shape=partialRectangle;connectable=0;fillColor=none;top=0;left=0;bottom=0;right=0;align=left;spacingLeft=6;overflow=hidden;whiteSpace=wrap;html=1;" vertex="1" parent="-O_35CLQnwZobcBv6rru-200">
          <mxGeometry x="30" width="220" height="30" as="geometry">
            <mxRectangle width="220" height="30" as="alternateBounds" />
          </mxGeometry>
        </mxCell>
        <mxCell id="-O_35CLQnwZobcBv6rru-203" value="" style="shape=tableRow;horizontal=0;startSize=0;swimlaneHead=0;swimlaneBody=0;fillColor=none;collapsible=0;dropTarget=0;points=[[0,0.5],[1,0.5]];portConstraint=eastwest;top=0;left=0;right=0;bottom=0;" vertex="1" parent="-O_35CLQnwZobcBv6rru-193">
          <mxGeometry y="120" width="250" height="30" as="geometry" />
        </mxCell>
        <mxCell id="-O_35CLQnwZobcBv6rru-204" value="" style="shape=partialRectangle;connectable=0;fillColor=none;top=0;left=0;bottom=0;right=0;editable=1;overflow=hidden;whiteSpace=wrap;html=1;" vertex="1" parent="-O_35CLQnwZobcBv6rru-203">
          <mxGeometry width="30" height="30" as="geometry">
            <mxRectangle width="30" height="30" as="alternateBounds" />
          </mxGeometry>
        </mxCell>
        <mxCell id="-O_35CLQnwZobcBv6rru-205" value="Row 3" style="shape=partialRectangle;connectable=0;fillColor=none;top=0;left=0;bottom=0;right=0;align=left;spacingLeft=6;overflow=hidden;whiteSpace=wrap;html=1;" vertex="1" parent="-O_35CLQnwZobcBv6rru-203">
          <mxGeometry x="30" width="220" height="30" as="geometry">
            <mxRectangle width="220" height="30" as="alternateBounds" />
          </mxGeometry>
        </mxCell>
      </root>
    </mxGraphModel>
  </diagram>
</mxfile>
